<svg xmlns="http://www.w3.org/2000/svg" width="340" height="40.637" viewBox="0 0 340 40.637">
    <path data-name="패스 912" d="M-1230.094 717.768v-10.019h34.841a1.179 1.179 0 0 0 1.155-1.273v-2.9a1.179 1.179 0 0 0-1.155-1.274h-25.755c-6.776 0-10.642-3.88-10.642-10.6v-3.821c0-6.717 3.966-10.655 10.642-10.655h34.086v10.017h-33.586a1.18 1.18 0 0 0-1.153 1.274v2.838a1.18 1.18 0 0 0 1.153 1.274h25.754c6.676 0 10.643 3.938 10.643 10.6v4c0 6.659-3.967 10.539-10.643 10.539z" transform="translate(1231.65 -677.13)" style="fill:#fff"/>
    <path data-name="패스 913" d="M-1138.726 687.251h-18.8v30.516h-9.988v-30.516h-18.8v-10.017h47.589z" transform="translate(1234.822 -677.13)" style="fill:#fff"/>
    <path data-name="패스 914" d="m-1122.842 687.831-15.613 29.937H-1150l22.087-40.534h10.191l22.087 40.534h-11.546z" transform="translate(1237.524 -677.13)" style="fill:#fff"/>
    <path data-name="패스 915" d="M-1097.756 717.768v-40.534h37.751a9.79 9.79 0 0 1 7.68 3.3 12.09 12.09 0 0 1 3.012 8.454v17.024a12.093 12.093 0 0 1-3.012 8.454 9.79 9.79 0 0 1-7.68 3.3zm9.987-30.516v20.5h25.457c1.757 0 3.012-1.389 3.012-3.416v-13.669c0-2.026-1.255-3.416-3.012-3.416z" transform="translate(1241.277 -677.13)" style="fill:#fff"/>
    <path data-name="패스 916" d="M-1036.254 677.234v40.534h-9.987v-40.534z" transform="translate(1244.939 -677.13)" style="fill:#fff"/>
    <path data-name="패스 917" d="M-944.09 687.251c-1.757 0-3.012 1.39-3.012 3.416v27.1h-10.015v-28.778a12.09 12.09 0 0 1 3.013-8.454 9.79 9.79 0 0 1 7.68-3.3h24.346a9.79 9.79 0 0 1 7.68 3.3 12.085 12.085 0 0 1 3.013 8.454v28.779h-9.987v-27.1c0-2.026-1.255-3.416-3.012-3.416z" transform="translate(1251.385 -677.13)" style="fill:#fff"/>
    <path data-name="패스 934" d="M-978.8 677.137h-31.8a20.275 20.275 0 0 0-20.245 20.307 20.275 20.275 0 0 0 20.245 20.306h31.8a20.276 20.276 0 0 0 20.245-20.306 20.276 20.276 0 0 0-20.245-20.307zm-.82 33.573a13.246 13.246 0 0 1-13.226-13.266 13.246 13.246 0 0 1 13.226-13.266 13.246 13.246 0 0 1 13.226 13.266 13.247 13.247 0 0 1-13.227 13.266z" transform="translate(1246.01 -677.137)" style="fill:#fff"/>
</svg>
